<?xml version="1.0" encoding="UTF-8" standalone="no"?>
<svg width="310px" height="59px" viewBox="0 0 310 59" version="1.1" xmlns="http://www.w3.org/2000/svg" xmlns:xlink="http://www.w3.org/1999/xlink" xmlns:sketch="http://www.bohemiancoding.com/sketch/ns">
    <!-- Generator: Sketch 3.5.2 (25235) - http://www.bohemiancoding.com/sketch -->
    <title>akzonobel-logo</title>
    <desc>Created with Sketch.</desc>
    <defs>
        <linearGradient x1="40.8461211%" y1="101.078037%" x2="58.7391271%" y2="-12.9004673%" id="linearGradient-1">
            <stop stop-color="#19518E" offset="33.71%"></stop>
            <stop stop-color="#0089C8" offset="92.7%"></stop>
        </linearGradient>
    </defs>
    <g id="Page-1" stroke="none" stroke-width="1" fill="none" fill-rule="evenodd" sketch:type="MSPage">
        <g id="akzonobel-logo" sketch:type="MSLayerGroup">
            <path d="M285.758629,15.4842139 C286.846341,14.9403543 288.477913,14.6684244 290.109486,13.852635 C291.197207,13.3087752 291.469128,13.3087752 292.82878,12.2210559 C292.82878,12.2210559 292.82878,11.9491261 292.556849,11.9491261 C291.741058,11.9491261 290.653346,11.6771963 290.653346,10.8614068 C290.653346,10.0456173 290.925277,8.95789799 291.469128,8.14210843 C292.012989,7.59824879 292.82878,6.78245932 292.82878,5.96666986 C292.82878,4.33509083 292.012989,4.06316101 291.469128,4.06316101 C291.469128,5.42281012 290.109486,6.78245932 289.565635,7.59824879 C287.662132,9.77368746 286.030559,10.5894769 285.758629,12.7649156 C286.030559,13.3087752 285.486699,14.6684244 285.758629,15.4842139 C285.214768,15.4842139 285.486699,15.4842139 285.758629,15.4842139 L285.758629,15.4842139 L285.758629,15.4842139 Z M238.443026,32.4776929 C238.714957,32.4776929 238.714957,32.2014918 238.443026,32.4776929 C234.907961,32.7538938 231.100955,33.8586977 227.56588,35.5159036 C227.293949,35.2397026 227.293949,34.9635017 227.293949,34.4110997 C227.293949,33.3062957 227.56588,31.6490899 228.653601,31.6490899 C231.372885,31.6490899 232.732527,29.991884 232.732527,29.991884 C232.732527,29.991884 228.653601,29.4394821 228.925522,27.7822761 C228.925522,27.2298742 229.469382,26.9536732 229.741313,27.2298742 C231.372885,27.5060752 231.916736,26.1250703 231.916736,26.1250703 C231.916736,26.1250703 230.557094,25.8488693 229.741313,25.2964674 C229.741313,25.2964674 229.469382,25.0202664 229.741313,24.7440653 C230.013243,24.4678644 230.285174,24.1916634 230.557094,24.4678644 C231.916736,24.7440653 232.460597,24.7440653 233.004458,24.7440653 C233.276388,24.7440653 233.548309,24.4678644 233.276388,24.4678644 C232.732527,24.1916634 232.188667,23.6392614 231.372885,23.0868595 C232.732527,22.2582566 233.548309,21.1534526 233.548309,21.1534526 C233.548309,21.1534526 233.276388,21.1534526 232.460597,20.8772517 C231.644816,20.6010506 231.644816,16.4580359 231.100955,15.629433 C230.557094,14.5246291 229.197452,13.6960262 228.381671,13.4198252 C227.293949,12.8674232 226.478168,12.8674232 225.934307,12.3150213 C225.118526,11.4864183 226.478168,6.23859968 221.03959,6.23859968 C217.504514,6.23859968 215.05716,9.00060943 214.5133,11.7626193 C214.241369,12.5912222 214.5133,13.9722271 214.5133,13.9722271 C214.5133,13.9722271 217.504514,13.4198252 218.592236,16.4580359 C217.776445,15.629433 216.960663,15.077031 216.688733,15.077031 C215.601021,14.8008301 214.78523,15.629433 214.5133,16.734237 C213.969449,19.7724478 216.960663,22.2582566 217.232594,22.5344575 C216.688733,28.6108791 219.136087,32.2014918 219.408017,37.1731095 C219.679947,40.2113203 217.504514,41.5923252 216.960663,41.8685261 C214.5133,44.354335 213.969449,45.4591389 213.153657,47.6687468 C213.153657,46.0115409 213.697518,43.801933 215.05716,41.3161242 C215.05716,41.0399233 215.05716,40.7637222 214.78523,41.0399233 C213.697518,41.5923252 211.522085,42.9733302 210.706304,43.801933 C209.618582,44.9067369 208.802801,45.7353399 207.98701,46.8401438 C206.627367,47.3925458 204.451944,48.2211487 201.46072,50.1545556 C199.013366,51.8117615 197.653724,54.8499723 197.653724,54.8499723 C197.653724,54.8499723 195.20636,54.5737712 191.671294,54.8499723 C184.057283,55.4023742 174.267848,58.992987 174.267848,58.992987 L213.425588,58.992987 C214.5133,49.0497517 228.10974,36.0683056 238.443026,32.4776929 L238.443026,32.4776929 L238.443026,32.4776929 Z M224.846595,16.3000035 C224.846595,16.3000035 225.390456,16.8438631 226.750098,16.8438631 C228.10974,16.8438631 228.653601,17.1157929 229.197452,17.6596526 C229.197452,20.3789509 227.83781,22.2824597 226.750098,22.2824597 C226.478168,22.2824597 226.478168,22.0105299 226.478168,22.0105299 C226.478168,21.4666703 226.478168,20.9228105 226.206237,20.6508807 C225.934307,20.1070211 225.390456,19.5631614 224.574665,19.2912316 C224.302735,19.2912316 224.030804,19.0193018 224.030804,18.475442 C223.758884,17.1157929 224.846595,16.3000035 224.846595,16.3000035 L224.846595,16.3000035 L224.846595,16.3000035 Z M235.723742,19.2912316 C235.995672,19.2912316 235.995672,19.2912316 236.267603,19.0193018 C236.811454,18.7473719 237.083384,18.2035122 237.083384,17.9315824 C237.083384,17.1157929 236.267603,16.5719333 234.63603,16.3000035 C234.09217,16.3000035 233.820239,16.3000035 233.548309,16.8438631 C233.004458,17.3877228 233.548309,18.475442 233.548309,18.7473719 C234.907961,18.7473719 235.451812,19.2912316 235.723742,19.2912316 L235.723742,19.2912316 L235.723742,19.2912316 Z M308.328714,1.07193287 C307.784853,1.07193287 306.969071,1.61579252 306.425211,2.43158198 C306.15328,2.7035118 305.609429,3.79123119 305.337499,4.60702065 C304.793638,4.87895047 304.521708,5.42281012 304.249787,5.69474004 C303.705926,6.23859968 303.162066,7.05438914 303.162066,7.05438914 C302.890135,8.14210843 301.802424,10.3175471 301.802424,10.3175471 C302.074354,9.22982781 302.890135,6.78245932 302.890135,6.23859968 C302.890135,5.69474004 302.890135,4.60702065 302.618215,4.06316101 L302.618215,2.43158198 C302.618215,2.15965216 302.890135,0.800003052 302.346284,0.800003052 C301.802424,0.800003052 300.986642,1.34386269 300.714712,2.43158198 C300.442781,3.24737154 300.714712,4.60702065 300.714712,6.23859968 C300.714712,6.5105295 300.442781,7.05438914 300.170851,8.14210843 C299.898921,9.22982781 299.62699,10.8614068 299.35507,11.9491261 C299.35507,11.4052665 299.898921,8.95789799 299.898921,8.14210843 C299.898921,7.05438914 299.083139,3.79123119 299.083139,3.24737154 C299.083139,2.7035118 298.811209,2.7035118 298.539279,2.7035118 C297.723497,2.7035118 296.907706,3.79123119 297.179636,5.42281012 C297.179636,5.96666986 297.723497,7.32631897 297.723497,8.14210843 C297.723497,8.95789799 297.179636,9.77368746 297.179636,10.0456173 C297.179636,11.1333367 296.907706,12.4929858 296.907706,13.3087752 L296.907706,9.50175764 C296.907706,8.95789799 296.091925,7.05438914 295.548064,5.96666986 C295.276134,5.42281012 295.004203,5.42281012 294.732273,5.69474004 C293.916491,6.23859968 293.916491,7.59824879 293.916491,8.41403835 C293.916491,8.95789799 294.460352,10.0456173 294.732273,10.8614068 C294.188422,15.4842139 293.1007,15.7561437 293.1007,15.7561437 C293.1007,15.7561437 292.82878,16.0280735 291.469128,16.3000035 C289.293704,16.5719333 285.758629,17.6596526 284.670917,16.5719333 C284.670917,16.5719333 284.398987,16.3000035 284.398987,16.5719333 C284.127056,16.8438631 281.407772,19.0193018 279.7762,20.3789509 C274.609552,24.1859686 271.074476,25.2736879 267.26748,27.9929862 C262.644683,35.3350917 258.293827,37.7824602 252.583328,39.4140391 C250.135964,39.9578987 247.68861,39.9578987 247.14475,38.8701794 C246.057038,35.8789513 250.135964,34.2473723 252.855248,33.7035126 C253.127179,33.7035126 253.127179,33.4315828 252.855248,33.4315828 C251.495606,32.6157934 249.864034,32.3438635 247.960541,32.3438635 C233.548309,32.0719337 220.223808,49.2035131 221.31152,58.4491273 L221.31152,58.992987 L235.995672,58.992987 C238.171106,57.0894782 240.346529,54.6421097 242.521962,51.3789517 C242.521962,51.3789517 238.714957,52.1947412 235.451812,51.9228114 C235.451812,51.9228114 239.802678,51.1070219 246.328968,46.7561446 C256.662254,49.4754429 266.179759,35.8789513 268.899053,40.5017585 C268.899053,40.7736883 269.170973,40.5017585 269.170973,40.5017585 C277.600766,34.791232 280.863911,27.7210564 286.57442,22.5543896 C289.293704,20.3789509 289.837565,19.2912316 294.188422,18.2035122 C295.548064,17.9315824 295.548064,17.3877228 296.091925,16.8438631 C296.635776,16.0280735 297.451567,16.8438631 298.267348,15.7561437 C298.539279,15.2122841 298.267348,14.6684244 299.35507,14.3964946 C300.714712,14.1245648 300.714712,13.0368454 301.258563,12.2210559 C302.890135,10.5894769 302.618215,10.5894769 303.977857,9.22982781 C304.521708,8.68596817 306.425211,6.23859968 306.697141,5.69474004 C306.969071,5.15088029 307.784853,3.24737154 308.600644,2.15965216 C309.960286,1.07193287 309.144505,0.800003052 308.328714,1.07193287 L308.328714,1.07193287 L308.328714,1.07193287 Z" id="Beeldmerk" fill="url(#linearGradient-1)" sketch:type="MSShapeGroup"></path>
            <g id="Woordmerk" transform="translate(0.000000, 9.872756)" fill="#005192" sketch:type="MSShapeGroup">
                <path d="M50.5456059,28.3637196 L65.818378,28.3637196 C67.1820183,28.3637196 68.0002026,27.2728073 68.0002026,25.909167 L68.0002026,24.8182547 C67.1820183,25.0909828 66.0911061,25.0909828 64.1820095,25.0909828 L59.0001761,25.0909828 L67.7274745,8.45457028 L50.8183339,8.45457028 L50.8183339,11.7273072 L58.45472,11.7273072 L51.091062,25.6364389 C50.5456059,26.7273512 50.2728778,27.8182635 50.5456059,28.3637196" id="Shape"></path>
                <path d="M35.5455618,17.7273248 L39.3637549,25.3637108 C40.4546672,27.5455354 41.0001233,28.3637196 43.454676,28.3637196 L48.9092374,28.3637196 C48.6365094,28.0909916 48.3637813,27.5455354 47.8183251,26.4546231 L42.0910356,15.8182283 L48.6365094,8.1818422 L42.6364917,8.1818422 L35.5455618,17.7273248 L35.5455618,17.7273248 L35.5455618,17.7273248 Z" id="Shape"></path>
                <path d="M28.1819039,28.3637196 L35.0001057,28.3637196 L35.0001057,4.36364917 C35.0001057,1.90909651 33.0910092,0.272728073 30.6364565,0.272728073 L27.9091758,0.272728073 L27.9091758,28.3637196 L28.1819039,28.3637196 L28.1819039,28.3637196 Z" id="Shape"></path>
                <path d="M25.181895,26.7273512 L18.0909651,6.00001761 C17.2727809,3.54546495 16.4545967,2.45455266 12.9091317,2.45455266 L9.9091229,2.45455266 L0.36364037,28.3637196 L4.45456147,28.3637196 L6.63638605,21.8182459 L15.9091406,21.8182459 L17.2727809,25.909167 C17.8182371,27.5455354 18.3636932,28.0909916 20.0000617,28.0909916 L25.7273512,28.0909916 C25.7273512,28.0909916 25.4546231,27.5455354 25.181895,26.7273512 L25.181895,26.7273512 L25.181895,26.7273512 Z M7.72729835,18.8182371 L11.5454914,7.90911413 L15.0909563,18.8182371 L7.72729835,18.8182371 L7.72729835,18.8182371 L7.72729835,18.8182371 Z" id="Shape"></path>
                <path d="M79.7275097,28.9091758 C85.4547993,28.9091758 90.3639046,24.8182547 90.3639046,18.0000528 C90.3639046,12.2727633 85.7275273,7.90911413 79.7275097,7.90911413 C74.0002202,7.90911413 69.0911149,12.2727633 69.0911149,19.0909651 C69.0911149,25.0909828 74.0002202,28.9091758 79.7275097,28.9091758 M79.7275097,25.3637108 C77.2729571,25.3637108 76.4547728,22.6364301 76.4547728,18.545509 C76.4547728,14.4545879 77.2729571,11.7273072 79.7275097,11.7273072 C82.1820624,11.7273072 82.7275185,14.727316 82.7275185,18.8182371 C82.7275185,22.6364301 82.1820624,25.3637108 79.7275097,25.3637108" id="Shape"></path>
                <path d="M93.3639134,28.3637196 L97.7275626,28.3637196 L97.7275626,11.7273072 L108.636686,24.8182547 C110.273054,26.7273512 111.091238,28.0909916 112.727607,28.0909916 L116.000343,28.0909916 L116.000343,4.36364917 C116.000343,3.00000881 115.182159,2.18182459 113.545791,2.18182459 L111.636694,2.18182459 L111.636694,17.7273248 L101.273028,5.45456147 C99.636659,3.54546495 98.8184749,2.45455266 96.6366503,2.45455266 L93.3639134,2.45455266 L93.3639134,28.3637196 L93.3639134,28.3637196 L93.3639134,28.3637196 Z" id="Shape"></path>
                <path d="M129.636747,28.9091758 C135.364037,28.9091758 140.273142,24.8182547 140.273142,18.0000528 C140.273142,12.2727633 135.636765,7.90911413 129.636747,7.90911413 C123.909458,7.90911413 119.000352,12.2727633 119.000352,19.0909651 C119.000352,25.0909828 123.909458,28.9091758 129.636747,28.9091758 M129.636747,25.3637108 C127.182194,25.3637108 126.36401,22.6364301 126.36401,18.545509 C126.36401,14.4545879 127.182194,11.7273072 129.636747,11.7273072 C132.0913,11.7273072 132.636756,14.727316 132.636756,18.8182371 C132.909484,22.6364301 132.0913,25.3637108 129.636747,25.3637108" id="Shape"></path>
                <path d="M185.546002,18.8182371 C185.546002,18.0000528 185.81873,17.1818686 185.81873,16.3636844 C185.81873,11.7273072 182.273265,7.90911413 176.273248,7.90911413 C170.27323,7.90911413 165.909581,12.0000352 165.909581,18.545509 C165.909581,24.8182547 169.727774,28.9091758 176.00052,28.9091758 C182.273265,28.9091758 184.45509,25.6364389 184.727818,22.363702 C183.364178,23.4546143 181.455081,24.0000705 179.000528,24.0000705 C175.455063,24.0000705 173.273239,22.0909739 173.000511,18.8182371 L185.546002,18.8182371 L185.546002,18.8182371 L185.546002,18.8182371 Z M172.727783,16.0909563 C173.000511,13.0909475 174.091423,11.181851 176.00052,11.181851 C178.7278,11.181851 179.273257,16.0909563 179.273257,16.0909563 L172.727783,16.0909563 L172.727783,16.0909563 L172.727783,16.0909563 Z" id="Shape"></path>
                <path d="M155.545914,8.1818422 C153.091361,8.1818422 151.182265,9.00002642 150.364081,10.0909387 L150.364081,4.63637725 C150.364081,2.18182459 148.454984,0.545456147 146.000432,0.545456147 L143.273151,0.545456147 L143.273151,28.6364477 L151.454993,28.6364477 C159.091379,28.6364477 163.455028,24.5455266 163.455028,17.1818686 C163.455028,12.0000352 159.909563,8.1818422 155.545914,8.1818422 L155.545914,8.1818422 L155.545914,8.1818422 Z M151.182265,25.0909828 L150.091353,25.0909828 L150.091353,12.2727633 L151.454993,12.2727633 C154.182274,12.2727633 156.09137,14.727316 156.09137,18.0000528 C156.364098,22.6364301 154.455002,25.0909828 151.182265,25.0909828 L151.182265,25.0909828 L151.182265,25.0909828 Z" id="Shape"></path>
                <path d="M188.546011,28.3637196 L195.364213,28.3637196 L195.364213,4.36364917 C195.364213,1.90909651 193.455116,0.272728073 191.000564,0.272728073 L188.546011,0.272728073 L188.546011,28.3637196 L188.546011,28.3637196 L188.546011,28.3637196 Z" id="Shape"></path>
            </g>
        </g>
    </g>
</svg>