<?xml version="1.0" encoding="utf-8"?>
<!-- Generator: Adobe Illustrator 19.1.0, SVG Export Plug-In . SVG Version: 6.00 Build 0)  -->
<svg version="1.1" id="Layer_1" xmlns="http://www.w3.org/2000/svg" xmlns:xlink="http://www.w3.org/1999/xlink" x="0px" y="0px"
	 viewBox="0 0 113.386 21.205" enable-background="new 0 0 113.386 21.205" xml:space="preserve">
<rect x="-9.438" y="-9.524" fill="none" width="132.262" height="40.255"/>
<g>
	<g>
		<path fill="#FFFFFF" d="M18.475,13.922h5.551c0.489,0,0.816-0.357,0.816-0.875v-0.442c-0.269,0.06-0.667,0.089-1.426,0.089h-1.827
			l3.179-6.121h-6.247v1.211h2.796l-2.663,5.057C18.415,13.283,18.387,13.639,18.475,13.922"/>
		<path fill="#FFFFFF" d="M12.939,10.016l1.438,2.767c0.401,0.799,0.579,1.14,1.485,1.14h2.047c-0.117-0.09-0.223-0.283-0.43-0.652
			l-2.094-3.851l2.449-2.847h-2.181L12.939,10.016z"/>
		<path fill="#FFFFFF" d="M10.253,13.922h2.537V5.135c0-0.914-0.667-1.506-1.587-1.506h-0.95V13.922z"/>
		<path fill="#FFFFFF" d="M9.126,13.255L6.589,5.714C6.291,4.813,5.981,4.399,4.733,4.399H3.531L0,13.922h1.602l0.807-2.354h3.398
			l0.484,1.523c0.18,0.561,0.401,0.812,1.01,0.812h2.138C9.335,13.801,9.26,13.626,9.126,13.255z M2.804,10.415L4.168,6.43
			l1.271,3.985H2.804z"/>
		<path fill="#FFFFFF" d="M29.132,14.098c2.107,0,3.901-1.508,3.901-4.008c0-2.13-1.706-3.71-3.858-3.71
			c-2.136,0-3.919,1.552-3.919,4.052C25.256,12.633,27.039,14.098,29.132,14.098 M29.161,12.738c-0.86,0-1.174-0.99-1.174-2.545
			c0-1.477,0.298-2.483,1.174-2.483c0.86,0,1.141,1.064,1.141,2.616C30.302,11.792,30.021,12.738,29.161,12.738"/>
		<path fill="#FFFFFF" d="M34.174,13.922h1.587V7.851l4.039,4.844c0.564,0.681,0.935,1.227,1.544,1.227H42.5V5.198
			c0-0.503-0.341-0.827-0.859-0.827h-0.699v5.744l-3.88-4.622c-0.579-0.694-0.874-1.122-1.72-1.122h-1.168V13.922z"/>
		<path fill="#FFFFFF" d="M47.473,14.098c2.107,0,3.903-1.508,3.903-4.008c0-2.128-1.708-3.71-3.86-3.71
			c-2.137,0-3.916,1.552-3.916,4.052C43.6,12.634,45.379,14.098,47.473,14.098 M47.503,12.738c-0.863,0-1.174-0.99-1.174-2.544
			c0-1.478,0.297-2.484,1.174-2.484c0.858,0,1.142,1.065,1.142,2.619C48.645,11.792,48.361,12.738,47.503,12.738"/>
		<path fill="#FFFFFF" d="M67.982,10.386c0.045-0.296,0.059-0.592,0.059-0.856c0-1.746-1.291-3.134-3.501-3.134
			c-2.197,0-3.8,1.536-3.8,3.872c0,2.264,1.409,3.83,3.71,3.83c2.3,0,3.131-1.196,3.177-2.351c-0.491,0.357-1.247,0.561-2.094,0.561
			c-1.285,0-2.117-0.731-2.237-1.923H67.982z M63.295,9.366c0.082-1.079,0.499-1.761,1.215-1.761c0.979,0,1.173,1.761,1.173,1.761
			H63.295z"/>
		<path fill="#FFFFFF" d="M56.927,6.467c-0.862,0-1.573,0.311-1.931,0.667V5.138c0-0.917-0.653-1.507-1.571-1.507h-0.95v10.291
			h2.968c2.834,0,4.407-1.479,4.407-4.231C59.85,7.843,58.59,6.467,56.927,6.467z M55.382,12.695h-0.386V7.947
			c0.163-0.015,0.298-0.03,0.55-0.03c0.965,0,1.692,0.89,1.692,2.073C57.238,11.747,56.569,12.695,55.382,12.695z"/>
		<path fill="#FFFFFF" d="M69.1,13.922h2.523V5.138c0-0.917-0.668-1.507-1.587-1.507H69.1V13.922z"/>
	</g>
	<g id="Logo_2_">
		<g>
			<path fill="#FFFFFF" d="M104.603,5.275c0.137-0.442,0.209-0.764,0.216-0.969c0.021-0.539,0.324-0.827,0.744-1.225
				c0.186-0.177,0.393-0.373,0.603-0.619l0.11-0.124c0.251-0.276,0.628-0.694,0.639-1.179c0.126,0.058,0.225,0.094,0.292,0.166
				c0.092,0.098,0.131,0.263,0.118,0.493c-0.014,0.236-0.263,0.503-0.445,0.699l-0.08,0.087c-0.272,0.301-0.408,0.703-0.353,1.048
				c0.028,0.35,0.502,0.459,0.782,0.493c-0.404,0.267-0.543,0.333-0.796,0.452l-0.204,0.097c-0.288,0.14-0.58,0.223-0.862,0.304
				C105.086,5.077,104.822,5.153,104.603,5.275L104.603,5.275z"/>
		</g>
		<path fill="#FFFFFF" d="M112.968,0.069c-0.219,0.049-0.463,0.223-0.68,0.526c-0.057,0.117-0.307,0.526-0.418,0.795
			c-0.18,0.147-0.281,0.26-0.414,0.397c-0.164,0.171-0.402,0.457-0.412,0.494c-0.125,0.408-0.504,1.2-0.504,1.2
			c0.055-0.354,0.389-1.316,0.416-1.491c0.041-0.25-0.041-0.553-0.065-0.803c-0.016-0.19-0.031-0.38-0.035-0.568
			c-0.002-0.087,0.09-0.634-0.104-0.619c-0.164,0.012-0.518,0.149-0.611,0.636c-0.057,0.289,0.014,0.802-0.023,1.362
			c-0.008,0.13-0.119,0.321-0.191,0.671c-0.082,0.401-0.18,0.951-0.332,1.412c0.021-0.155,0.166-1.068,0.191-1.447
			c0.025-0.379-0.309-1.569-0.332-1.76c-0.018-0.151-0.076-0.195-0.156-0.203c-0.283-0.025-0.568,0.401-0.477,0.98
			c0.029,0.173,0.246,0.673,0.227,0.96c-0.021,0.286-0.158,0.578-0.172,0.74c-0.033,0.402-0.051,0.946-0.102,1.198
			c0.041-0.201-0.031-1.203-0.049-1.416c-0.012-0.15-0.32-0.855-0.469-1.25c-0.062-0.169-0.182-0.178-0.264-0.137
			c-0.332,0.166-0.348,0.744-0.281,1.013c0.041,0.157,0.25,0.579,0.332,0.936c-0.217,1.671-0.58,1.792-0.58,1.792
			s-0.125,0.099-0.557,0.17c-0.76,0.127-2.09,0.499-2.457,0.102c-0.027-0.027-0.094-0.064-0.148-0.023
			c-0.113,0.091-1.082,0.927-1.666,1.37c-1.867,1.414-3.156,1.8-4.633,2.817c-1.705,2.675-3.338,3.828-5.445,4.407
			c-0.988,0.271-1.959,0.172-2.176-0.462c-0.4-1.149,1.322-1.785,2.375-1.96c0.057-0.009,0.059-0.089,0.002-0.118
			c-0.508-0.275-1.094-0.403-1.811-0.403c-5.295-0.132-9.471,6.185-9.023,9.615c0.008,0.069,0.018,0.136,0.027,0.202h4.672
			c0.764-0.709,1.566-1.623,2.381-2.757c0,0-2.047,0.267-3.27,0.18c0,0,2.205-0.592,4.533-2.199
			c3.812,1.009,7.068-4.011,8.354-1.976c0.033,0.051,0.103,0.005,0.123-0.01c3.068-2.082,4.274-4.722,6.42-6.558
			c0.963-0.823,1.15-1.163,2.82-1.608c0.465-0.123,0.518-0.304,0.674-0.484c0.217-0.256,0.529-0.029,0.756-0.426
			c0.088-0.157-0.006-0.396,0.447-0.491c0.459-0.097,0.504-0.519,0.721-0.761c0.568-0.629,0.498-0.589,0.986-1.114
			c0.184-0.214,0.926-1.115,0.996-1.256c0.104-0.207,0.361-0.885,0.686-1.264C113.56,0.117,113.284-0.001,112.968,0.069z"/>
		<path fill="#FFFFFF" d="M81.905,6.418c0.002,0.179,0.147,0.268,0.217,0.304c0.348,0.182,0.49,0.347,0.625,0.534
			c0.117,0.166,0.121,0.375,0.096,0.542c-0.01,0.067,0.037,0.119,0.123,0.119c0.395-0.005,0.9-0.72,0.93-1.703
			c-0.115-0.173-0.359-0.324-0.859-0.319c-0.506,0.005-0.74-0.193-0.74-0.193S81.901,6,81.905,6.418z"/>
		<path fill="#FFFFFF" d="M86.46,6.694c-0.043,0.033-0.1,0.055-0.162,0.056c-0.098,0-0.332-0.128-0.799-0.137
			c-0.041-0.099-0.215-0.537-0.029-0.723c0.135-0.136,0.18-0.172,0.396-0.159c0.377,0.019,0.637,0.148,0.777,0.305
			c0.035-0.425,0.021-0.837-0.051-1.262c-0.07-0.425-0.547-3.151-4.008-3.237c-3.945-0.099-4.334,2.301-4.209,3.209
			c0.021,0.154,0.064,0.58,0.266,0.997c0.09-0.322,0.34-0.546,0.732-0.474c0.107,0.02,0.414,0.174,0.732,0.492
			C79.714,4.664,78.64,4.9,78.64,4.9s-0.055-0.402,0.012-0.752c0.199-1.028,1.064-2.043,2.355-2.043
			c2.061,0,1.559,1.915,1.846,2.225c0.168,0.181,0.508,0.226,0.863,0.381c0.275,0.119,0.729,0.469,0.951,0.833
			c0.197,0.321,0.189,1.804,0.494,1.933c0.252,0.106,0.385,0.063,0.385,0.063s-0.297,0.404-0.783,0.704
			c0.309,0.135,0.539,0.385,0.705,0.466c0.076,0.038,0.016,0.109-0.078,0.11c-0.15,0-0.412-0.02-0.865-0.139
			c-0.164-0.041-0.256,0.035-0.346,0.127c-0.074,0.077-0.012,0.136,0.037,0.172c0.23,0.168,0.764,0.3,0.764,0.3
			s-0.199,0.453-0.756,0.353C84.042,9.6,83.927,9.69,83.89,9.881c-0.098,0.509,0.766,0.714,1.133,0.779
			c0.195,0.049,0.373-0.25,0.404-0.318c0.25-0.532,0.863-2.091,1.016-2.572c0.154-0.481,0.293-0.767,0.121-1.161
			C86.53,6.638,86.495,6.667,86.46,6.694z"/>
		<path fill="#FFFFFF" d="M72.491,19.698l0.002-0.002v0.002H72.491z"/>
		<path fill="#FFFFFF" d="M78.239,21.205c0.266-3.752,5.209-8.477,9.047-9.727c0.102-0.041,0.1-0.095,0-0.084
			c-1.035,0.118-2.076,0.415-3.078,0.825c-0.141,0.058-0.238-0.031-0.318-0.15c-0.186-0.28-0.141-0.814-0.432-0.15
			c-0.113,0.258-0.697,1.641-1.014,1.878c-1.641,1.235-5.15,4.315-5.707,7.408H78.239z"/>
		<path fill="#FFFFFF" d="M72.183,21.205c0.727-0.856,2.246-1.227,2.246-1.227c0.436-1.888,2.357-2.85,2.357-2.85
			c0.475-1.113,1.795-1.947,1.795-1.947c-0.311,0.684-0.443,1.303-0.443,1.778c0.34-0.974,1.064-1.78,1.465-2.103
			c0.23-0.186,0.961-0.712,0.963-1.735c0.002-1.757-1.01-2.127-0.691-5.055c-0.506-0.04-1.117-0.617-1.117-0.617
			c0.078,0.117,0.576,0.493,0.621,1.691c0.033,1.337,0.354,3.048,0.449,3.51c0.109,0.526-0.076,1.108-0.609,1.622
			c-0.264,0.254-1.504,0.909-2.012,1.336c-0.395,0.333-0.713,0.707-1.02,1.07c-0.525,0.151-1.307,0.485-2.365,1.226
			c-0.863,0.607-1.4,1.746-1.4,1.746s-0.895-0.077-2.197,0.03c-2.805,0.235-6.422,1.524-6.422,1.524H72.183z"/>
	</g>
</g>
</svg>
