<?xml version="1.0" encoding="UTF-8"?>
<svg width="29px" height="22px" viewBox="0 0 29 22" version="1.1" xmlns="http://www.w3.org/2000/svg" xmlns:xlink="http://www.w3.org/1999/xlink">
    <!-- Generator: Sketch 51.2 (57519) - http://www.bohemiancoding.com/sketch -->
    <title>iconmonstr-shopping-cart-2</title>
    <desc>Created with Sketch.</desc>
    <defs></defs>
    <g id="Page-1" stroke="none" stroke-width="1" fill="none" fill-rule="evenodd">
        <g id="MOCKUP-Copy" transform="translate(-1371.000000, -31.000000)" fill="#FFFFFF" fill-rule="nonzero">
            <g id="iconmonstr-shopping-cart-2" transform="translate(1371.000000, 31.000000)">
                <path d="M29,0 L28.1022083,2.44444444 L25.7713333,2.44444444 L21.5735833,17.1111111 L5.57645833,17.1111111 L1.77635684e-15,3.66666667 L23.3145,3.66666667 L22.633,6.11111111 L3.63466667,6.11111111 L7.18354167,14.6666667 L19.7840417,14.6666667 L23.9310417,0 L29,0 Z M10.2708333,18.3333333 C9.27033333,18.3333333 8.45833333,19.1546667 8.45833333,20.1666667 C8.45833333,21.1798889 9.27033333,22 10.2708333,22 C11.2713333,22 12.0833333,21.1798889 12.0833333,20.1666667 C12.0833333,19.1546667 11.2713333,18.3333333 10.2708333,18.3333333 Z M18.6083333,9.77777778 L16.3125,18.3333333 C15.312,18.3333333 14.5,19.1534444 14.5,20.1666667 C14.5,21.1798889 15.312,22 16.3125,22 C17.313,22 18.125,21.1798889 18.125,20.1666667 C18.125,19.1546667 17.313,18.3333333 16.3125,18.3333333 L18.6083333,9.77777778 Z" id="Shape"></path>
            </g>
        </g>
    </g>
</svg>