<?xml version="1.0" encoding="UTF-8"?>
<svg width="130px" height="28px" viewBox="0 0 130 28" version="1.1" xmlns="http://www.w3.org/2000/svg" xmlns:xlink="http://www.w3.org/1999/xlink">
    <!-- Generator: Sketch 51.2 (57519) - http://www.bohemiancoding.com/sketch -->
    <title>upplyst-logo</title>
    <desc>Created with Sketch.</desc>
    <defs></defs>
    <g id="Page-1" stroke="none" stroke-width="1" fill="none" fill-rule="evenodd">
        <g id="MOCKUP-Copy" transform="translate(-659.000000, -30.000000)" fill="#FFFFFF">
            <g id="upplyst-logo" transform="translate(659.000000, 30.000000)">
                <path d="M16.185,21.15 C15.0649944,21.15 14.2200028,20.8900026 13.65,20.37 C13.0799971,19.8499974 12.795,19.0200057 12.795,17.88 L12.795,17.22 C11.9749959,18.4800063 11.0250054,19.4849962 9.945,20.235 C8.8649946,20.9850038 7.5850074,21.36 6.105,21.36 C5.3449962,21.36 4.6250034,21.2350012 3.945,20.985 C3.2649966,20.7349988 2.67000255,20.3650024 2.16,19.875 C1.64999745,19.3849976 1.2450015,18.7800036 0.945,18.06 C0.6449985,17.3399964 0.495,16.5100047 0.495,15.57 C0.495,15.1099977 0.5149998,14.685002 0.555,14.295 C0.5950002,13.9049981 0.6549996,13.4700024 0.735,12.99 L2.955,0 L5.805,0 L3.495,13.62 C3.4349997,13.9800018 3.3950001,14.2849988 3.375,14.535 C3.3549999,14.7850013 3.345,15.0599985 3.345,15.36 C3.345,16.4400054 3.6649968,17.2949969 4.305,17.925 C4.9450032,18.5550031 5.8149945,18.87 6.915,18.87 C7.5950034,18.87 8.2849965,18.7100016 8.985,18.39 C9.6850035,18.0699984 10.334997,17.605003 10.935,16.995 C11.535003,16.384997 12.0599977,15.6300045 12.51,14.73 C12.9600022,13.8299955 13.284999,12.8000058 13.485,11.64 L15.555,0 L18.405,0 L15.465,16.62 C15.4449999,16.7200005 15.43,16.8349994 15.42,16.965 C15.4099999,17.0950006 15.405,17.2299993 15.405,17.37 C15.405,17.9100027 15.5599984,18.2999988 15.87,18.54 C16.1800015,18.7800012 16.6149972,18.9 17.175,18.9 L16.185,21.15 Z M21.975,5.4 C24.0550104,5.4 25.095,6.299991 25.095,8.1 L25.095,8.73 C25.6750029,7.6499946 26.4199954,6.76500345 27.33,6.075 C28.2400045,5.38499655 29.3149938,5.04 30.555,5.04 C31.355004,5.04 32.0849967,5.1999984 32.745,5.52 C33.4050033,5.8400016 33.9649977,6.28499715 34.425,6.855 C34.8850023,7.42500285 35.2399987,8.10499605 35.49,8.895 C35.7400012,9.68500395 35.865,10.5599952 35.865,11.52 C35.865,13.0000074 35.6450022,14.344994 35.205,15.555 C34.7649978,16.765006 34.1850036,17.7999957 33.465,18.66 C32.7449964,19.5200043 31.9200046,20.1849977 30.99,20.655 C30.0599953,21.1250024 29.1050049,21.36 28.125,21.36 C27.1649952,21.36 26.2700041,21.1200024 25.44,20.64 C24.6099958,20.1599976 23.9650023,19.5700035 23.505,18.87 L21.975,27.6 L19.275,27.6 L22.395,9.75 C22.4550003,9.4299984 22.485,9.1500012 22.485,8.91 C22.485,7.9699953 21.9950049,7.5 21.015,7.5 L21.975,5.4 Z M27.885,18.96 C28.5850035,18.96 29.2499968,18.7850017 29.88,18.435 C30.5100031,18.0849982 31.0649976,17.5950031 31.545,16.965 C32.0250024,16.3349969 32.4049986,15.5800044 32.685,14.7 C32.9650014,13.8199956 33.105,12.8500053 33.105,11.79 C33.105,10.4099931 32.7950031,9.3300039 32.175,8.55 C31.5549969,7.7699961 30.745005,7.38 29.745,7.38 C29.144997,7.38 28.5600028,7.52499855 27.99,7.815 C27.4199971,8.10500145 26.9050023,8.5099974 26.445,9.03 C25.9849977,9.5500026 25.5800017,10.1849963 25.23,10.935 C24.8799982,11.6850038 24.6250008,12.5099955 24.465,13.41 L23.925,16.44 C24.3650022,17.2600041 24.9299965,17.8849978 25.62,18.315 C26.3100034,18.7450021 27.0649959,18.96 27.885,18.96 Z M40.035,5.4 C42.1150104,5.4 43.155,6.299991 43.155,8.1 L43.155,8.73 C43.7350029,7.6499946 44.4799954,6.76500345 45.39,6.075 C46.3000045,5.38499655 47.3749938,5.04 48.615,5.04 C49.415004,5.04 50.1449967,5.1999984 50.805,5.52 C51.4650033,5.8400016 52.0249977,6.28499715 52.485,6.855 C52.9450023,7.42500285 53.2999987,8.10499605 53.55,8.895 C53.8000012,9.68500395 53.925,10.5599952 53.925,11.52 C53.925,13.0000074 53.7050022,14.344994 53.265,15.555 C52.8249978,16.765006 52.2450036,17.7999957 51.525,18.66 C50.8049964,19.5200043 49.9800046,20.1849977 49.05,20.655 C48.1199953,21.1250024 47.1650049,21.36 46.185,21.36 C45.2249952,21.36 44.3300041,21.1200024 43.5,20.64 C42.6699958,20.1599976 42.0250023,19.5700035 41.565,18.87 L40.035,27.6 L37.335,27.6 L40.455,9.75 C40.5150003,9.4299984 40.545,9.1500012 40.545,8.91 C40.545,7.9699953 40.0550049,7.5 39.075,7.5 L40.035,5.4 Z M45.945,18.96 C46.6450035,18.96 47.3099968,18.7850017 47.94,18.435 C48.5700031,18.0849982 49.1249976,17.5950031 49.605,16.965 C50.0850024,16.3349969 50.4649986,15.5800044 50.745,14.7 C51.0250014,13.8199956 51.165,12.8500053 51.165,11.79 C51.165,10.4099931 50.8550031,9.3300039 50.235,8.55 C49.6149969,7.7699961 48.805005,7.38 47.805,7.38 C47.204997,7.38 46.6200028,7.52499855 46.05,7.815 C45.4799971,8.10500145 44.9650023,8.5099974 44.505,9.03 C44.0449977,9.5500026 43.6400017,10.1849963 43.29,10.935 C42.9399982,11.6850038 42.6850008,12.5099955 42.525,13.41 L41.985,16.44 C42.4250022,17.2600041 42.9899965,17.8849978 43.68,18.315 C44.3700034,18.7450021 45.1249959,18.96 45.945,18.96 Z M60.135,0 L62.985,0 L59.745,18.45 L69.375,18.45 L68.925,21 L56.445,21 L60.135,0 Z M77.235,18.6 C77.7950028,18.6 78.3549972,18.4650014 78.915,18.195 C79.4750028,17.9249987 79.9999975,17.5300026 80.49,17.01 C80.9800024,16.4899974 81.4049982,15.8500038 81.765,15.09 C82.1250018,14.3299962 82.3949991,13.4600049 82.575,12.48 L83.805,5.4 L86.505,5.4 L83.775,21.18 C83.5349988,22.5600069 83.1650025,23.6849957 82.665,24.555 C82.1649975,25.4250043 81.5950032,26.1149974 80.955,26.625 C80.3149968,27.1350026 79.6350036,27.484999 78.915,27.675 C78.1949964,27.8650009 77.4850035,27.96 76.785,27.96 C75.4249932,27.96 74.2700047,27.6850028 73.32,27.135 C72.3699952,26.5849973 71.595003,25.9300038 70.995,25.17 L73.095,23.61 C74.0750049,24.9500067 75.364992,25.62 76.965,25.62 C77.965005,25.62 78.8449962,25.2500037 79.605,24.51 C80.3650038,23.7699963 80.9049984,22.5100089 81.225,20.73 L81.795,17.55 C81.194997,18.5100048 80.4350046,19.3249967 79.515,19.995 C78.5949954,20.6650033 77.535006,21 76.335,21 C75.734997,21 75.1750026,20.900001 74.655,20.7 C74.1349974,20.499999 73.675002,20.2100019 73.275,19.83 C72.874998,19.4499981 72.5600011,18.9900027 72.33,18.45 C72.0999988,17.9099973 71.985,17.3000034 71.985,16.62 C71.985,16.3999989 71.9949999,16.1500014 72.015,15.87 C72.0350001,15.5899986 72.0649998,15.2900016 72.105,14.97 L73.725,5.4 L76.425,5.4 L74.775,14.91 C74.7149997,15.2700018 74.685,15.6099984 74.685,15.93 C74.685,16.8300045 74.9349975,17.4999978 75.435,17.94 C75.9350025,18.3800022 76.5349965,18.6 77.235,18.6 Z M99.345,8.79 C98.7649971,8.389998 98.1200035,8.0400015 97.41,7.74 C96.6999964,7.4399985 95.8950045,7.29 94.995,7.29 C94.0349952,7.29 93.3000025,7.4499984 92.79,7.77 C92.2799974,8.0900016 92.025,8.5099974 92.025,9.03 C92.025,9.2700012 92.0699995,9.489999 92.16,9.69 C92.2500004,9.890001 92.4099988,10.094999 92.64,10.305 C92.8700011,10.5150011 93.184998,10.7399988 93.585,10.98 C93.985002,11.2200012 94.4949969,11.4999984 95.115,11.82 C96.4950069,12.5200035 97.5099967,13.2249964 98.16,13.935 C98.8100032,14.6450035 99.135,15.5399946 99.135,16.62 C99.135,17.420004 98.9750016,18.114997 98.655,18.705 C98.3349984,19.2950029 97.8900028,19.784998 97.32,20.175 C96.7499971,20.5650019 96.0850038,20.859999 95.325,21.06 C94.5649962,21.260001 93.7450044,21.36 92.865,21.36 C91.6449939,21.36 90.5700046,21.2050016 89.64,20.895 C88.7099953,20.5849985 87.9050034,20.1800025 87.225,19.68 L88.755,17.46 C89.2950027,17.9000022 89.9299963,18.2699985 90.66,18.57 C91.3900036,18.8700015 92.2049955,19.02 93.105,19.02 C94.1250051,19.02 94.9199971,18.8300019 95.49,18.45 C96.0600028,18.0699981 96.345,17.6000028 96.345,17.04 C96.345,16.7799987 96.3000004,16.5350011 96.21,16.305 C96.1199995,16.0749989 95.9550012,15.8400012 95.715,15.6 C95.4749988,15.3599988 95.150002,15.1150012 94.74,14.865 C94.3299979,14.6149988 93.8150031,14.3300016 93.195,14.01 C92.4349962,13.6299981 91.8100024,13.2650017 91.32,12.915 C90.8299975,12.5649983 90.4400014,12.2000019 90.15,11.82 C89.8599985,11.4399981 89.6550006,11.0350022 89.535,10.605 C89.4149994,10.1749979 89.355,9.7000026 89.355,9.18 C89.355,8.579997 89.4949986,8.02500255 89.775,7.515 C90.0550014,7.00499745 90.4449975,6.5700018 90.945,6.21 C91.4450025,5.8499982 92.0449965,5.56500105 92.745,5.355 C93.4450035,5.14499895 94.2149958,5.04 95.055,5.04 C96.1750056,5.04 97.1799955,5.18499855 98.07,5.475 C98.9600044,5.76500145 99.7449966,6.109998 100.425,6.51 L99.345,8.79 Z M102.285,5.97 L105.045,5.97 L106.485,1.05 L108.555,1.05 L107.685,5.97 L112.005,5.97 L111.615,8.31 L107.265,8.31 L106.005,15.6 C105.925,16.000002 105.885,16.3799982 105.885,16.74 C105.885,17.4400035 106.089998,17.9849981 106.5,18.375 C106.910002,18.7650019 107.464996,18.96 108.165,18.96 C108.745003,18.96 109.229998,18.8750008 109.62,18.705 C110.010002,18.5349992 110.374998,18.3600009 110.715,18.18 L111.045,20.52 C110.664998,20.7400011 110.190003,20.9349991 109.62,21.105 C109.049997,21.2750008 108.415003,21.36 107.715,21.36 C107.154997,21.36 106.605003,21.2750008 106.065,21.105 C105.524997,20.9349991 105.045002,20.6750017 104.625,20.325 C104.204998,19.9749982 103.865001,19.5200028 103.605,18.96 C103.344999,18.3999972 103.215,17.7300039 103.215,16.95 C103.215,16.7299989 103.225,16.5050011 103.245,16.275 C103.265,16.0449988 103.295,15.7800015 103.335,15.48 L104.565,8.31 L101.895,8.31 L102.285,5.97 Z" id="UppLyst"></path>
                <path d="M124,13.8181818 L121,13.8181818 C120.793,13.8181818 120.625,13.9810909 120.625,14.1818182 C120.625,14.3825455 120.793,14.5454545 121,14.5454545 L124,14.5454545 C124.207,14.5454545 124.375,14.3825455 124.375,14.1818182 C124.375,13.9810909 124.207,13.8181818 124,13.8181818 Z M124,15.2727273 L121,15.2727273 C120.793,15.2727273 120.625,15.4356364 120.625,15.6363636 C120.625,15.8370909 120.793,16 121,16 L124,16 C124.207,16 124.375,15.8370909 124.375,15.6363636 C124.375,15.4356364 124.207,15.2727273 124,15.2727273 Z M127,6.69163636 C127,9.28727273 124.5895,11.0429091 124.5895,13.0909091 L123.09775,13.0909091 C123.0955,11.7396364 123.75025,10.6261818 124.3885,9.55127273 C124.95925,8.58763636 125.5,7.67709091 125.5,6.69163636 C125.5,4.80654545 123.94375,3.94836364 122.49775,3.94836364 C121.054,3.94836364 119.5,4.80654545 119.5,6.69163636 C119.5,7.67709091 120.04075,8.58763636 120.6115,9.55127273 C121.24975,10.6261818 121.90525,11.7396364 121.9015,13.0909091 L120.4105,13.0909091 C120.4105,11.0429091 118,9.28727273 118,6.69163636 C118,3.984 120.2485,2.49381818 122.49775,2.49381818 C124.7485,2.49381818 127,3.98545455 127,6.69163636 Z M130,6.18909091 L130,7.18690909 L128.0965,7.18690909 C128.1115,7.02472727 128.125,6.86109091 128.125,6.69163636 C128.125,6.51927273 128.11225,6.35418182 128.09875,6.18981818 L130,6.18981818 L130,6.18909091 Z M122.014,1.42327273 L122.014,0 L123.04225,0 L123.04225,1.42836364 C122.86075,1.41236364 122.67925,1.40290909 122.49775,1.40290909 C122.3365,1.40290909 122.17525,1.41018182 122.014,1.42327273 Z M119.20675,2.36436364 L118.42675,0.953454545 L119.33275,0.482181818 L120.1105,1.888 C119.797,2.01963636 119.494,2.17963636 119.20675,2.36436364 Z M127.14625,3.62618182 L128.60275,2.61236364 L129.202,3.42327273 L127.6615,4.49454545 C127.51825,4.18181818 127.34425,3.89309091 127.14625,3.62618182 Z M124.88875,1.88872727 L125.66725,0.482181818 L126.57325,0.953454545 L125.7925,2.36509091 C125.506,2.18036364 125.203,2.02109091 124.88875,1.88872727 Z M117.33775,4.49454545 L115.79725,3.424 L116.3965,2.61309091 L117.853,3.62618182 C117.655,3.89236364 117.48175,4.18109091 117.33775,4.49454545 Z M127.618,9.02036364 L129.3835,9.71418182 L128.998,10.6385455 L127.17925,9.92436364 C127.33675,9.63563636 127.48525,9.33381818 127.618,9.02036364 Z M117.787,9.86036364 L116.02,10.6312727 L115.5985,9.72145455 L117.3535,8.95636364 C117.48325,9.27127273 117.63175,9.57090909 117.787,9.86036364 Z M116.9035,7.18690909 L115,7.18690909 L115,6.18909091 L116.90125,6.18909091 C116.88775,6.35345455 116.875,6.51927273 116.875,6.69163636 C116.875,6.86109091 116.8885,7.02472727 116.9035,7.18690909 Z" id="bulb" fill-rule="nonzero"></path>
            </g>
        </g>
    </g>
</svg>